<svg id="Capa_1" enable-background="new 0 0 512.018 512.018" height="512" viewBox="0 0 512.018 512.018" width="512" xmlns="http://www.w3.org/2000/svg"><g><path d="m405.016 128.747c-27.143-31.749-63.699-53.982-103.982-63.479v-65.268h-90.049v65.268c-40.284 9.497-76.839 31.73-103.982 63.479-30.274 35.411-46.946 80.604-46.946 127.253v175.97l120.072 80.048v-73.076h151.76v73.076l120.072-80.048v-175.97c0-46.649-16.672-91.842-46.945-127.253zm-164.032-98.747h30.049v234.032h-30.049zm-90.855 425.962-60.072-40.048v-159.914c0-39.506 14.116-77.776 39.748-107.758 21.442-25.08 49.802-43.146 81.18-51.992v137.759h-90.88v53.9c0 24.83 11.089 48.057 30.024 63.628zm30-47.021v-72.961l-6.68-4.453c-14.618-9.745-23.345-26.051-23.345-43.619v-23.9h60.88v30.024h90.049v-30.024h60.88v23.9c0 17.568-8.727 33.875-23.345 43.619l-6.68 4.453v72.961zm241.832 6.973-60.072 40.048v-104.426c18.936-15.571 30.024-38.799 30.024-63.628v-53.9h-90.88v-137.759c31.378 8.846 59.738 26.912 81.18 51.992 25.632 29.982 39.748 68.251 39.748 107.758z"/></g></svg>