<?xml version="1.0" encoding="iso-8859-1"?>
<!-- Generator: Adobe Illustrator 19.0.0, SVG Export Plug-In . SVG Version: 6.00 Build 0)  -->
<svg version="1.1" id="Capa_1" xmlns="http://www.w3.org/2000/svg" xmlns:xlink="http://www.w3.org/1999/xlink" x="0px" y="0px"
	 viewBox="0 0 512 512" style="enable-background:new 0 0 512 512;" xml:space="preserve">
<g>
	<g>
		<path d="M508.583,109.488c-2.438-2.229-5.771-3.229-9-2.688c-23,3.823-93.042,15.438-121.417,1.01
			c-7.081-3.6-15.505-8.393-24.522-13.804l17.585-23.656c3.5-4.719,2.542-11.375-2.167-14.896l-42.667-32.001
			c-4.667-3.49-11.292-2.583-14.875,2.063l-21.173,27.733c-16.307-10.996-27.926-19.124-28.223-19.337
			c-4.667-3.271-11.167-2.281-14.667,2.344l-64,85.336c-1.708,2.292-2.438,5.167-2,8s1.979,5.375,4.292,7.042
			c0,0,10.896,7.857,26.408,19.08L8.042,423.217C2.854,429.977,0,438.394,0,446.926v4.677c0,21.542,17.521,39.064,39.063,39.064
			c12.292,0,24.021-5.886,31.354-15.75l203.818-274.121c10.845,7.917,20.9,15.288,28.745,21.102
			c17.063,12.625,31.687,55.356,39.146,114.295c0.438,3.417,2.5,6.427,5.542,8.052c1.563,0.844,3.313,1.271,5.042,1.271
			c1.625,0,3.25-0.365,4.729-1.104c86.896-43.043,146.104-129.702,154.521-226.163C512.25,114.967,511,111.728,508.583,109.488z
			 M322.063,46.875l25.708,19.281l-12.354,16.617c-9.216-5.815-18.512-11.853-27.289-17.647L322.063,46.875z M53.292,462.188
			c-3.333,4.479-8.646,7.146-14.229,7.146c-9.771,0-17.729-7.958-17.729-17.729v-4.677c0-3.865,1.292-7.677,3.646-10.75
			l204.46-267.938c8.822,6.393,18.22,13.215,27.55,20L53.292,462.188z M348.753,262.895c-7.531-24.503-18.085-47.031-33.065-58.134
			c-28.813-21.333-86.604-63.135-108.646-79.052l51.313-68.417c21.438,14.792,77.875,53.146,110.146,69.552
			c15.815,8.031,39.391,9.885,64.348,8.928C422.521,187.747,392.608,232.943,348.753,262.895z M361.146,318.281
			c-1.618-10.449-3.779-22.016-6.507-33.727c53.458-34.027,89.462-87.977,100.194-150.212c11.733-1.109,23.38-2.616,34.313-4.27
			C477.938,208.719,430.208,278.865,361.146,318.281z"/>
	</g>
</g>
<g>
</g>
<g>
</g>
<g>
</g>
<g>
</g>
<g>
</g>
<g>
</g>
<g>
</g>
<g>
</g>
<g>
</g>
<g>
</g>
<g>
</g>
<g>
</g>
<g>
</g>
<g>
</g>
<g>
</g>
</svg>
