<svg xmlns="http://www.w3.org/2000/svg" width="103" height="101"><path data-name="Union 1" d="M62.03 93.971A24.049 24.049 0 0157.1 67.14a18.692 18.692 0 01-11.21 0 23.96 23.96 0 11-12.03-12.035 18.738 18.738 0 01-.557-8.968 23.951 23.951 0 1113.473-14.531 18.741 18.741 0 019.449 0A23.96 23.96 0 1169.7 46.138a18.738 18.738 0 01-.56 8.962 24.007 24.007 0 11-7.11 38.866zM73 77a6 6 0 106-6 6.007 6.007 0 00-6 6zm-55 0a6 6 0 106-6 6.007 6.007 0 00-6 6zm28-27.5a5.5 5.5 0 105.5-5.5 5.506 5.506 0 00-5.5 5.5zM73 24a6 6 0 106-6 6.006 6.006 0 00-6 6zm-55 0a6 6 0 106-6 6.007 6.007 0 00-6 6z" /></svg>