<svg xmlns="http://www.w3.org/2000/svg" width="40" height="40" viewBox="0 0 40 40"><path d="M41,21A20,20,0,1,0,7.123,35.37a1.22,1.22,0,0,0,.315.286,19.884,19.884,0,0,0,27.125,0,1.22,1.22,0,0,0,.315-.286A19.929,19.929,0,0,0,41,21ZM21,3.5A17.475,17.475,0,0,1,34.716,31.835c-1.084-3.5-4.179-6.234-8.38-7.493a9.123,9.123,0,1,0-10.672,0c-4.2,1.259-7.3,4-8.38,7.493A17.475,17.475,0,0,1,21,3.5ZM14.377,16.968A6.623,6.623,0,1,1,21,23.578,6.624,6.624,0,0,1,14.377,16.968ZM9.385,34.053C9.76,29.47,14.621,26.078,21,26.078s11.24,3.392,11.615,7.975a17.394,17.394,0,0,1-23.231,0Z" transform="translate(-1 -1)" fill="#fff"/></svg>