<?xml version="1.0" ?><!DOCTYPE svg  PUBLIC '-//W3C//DTD SVG 1.1//EN'  'http://www.w3.org/Graphics/SVG/1.1/DTD/svg11.dtd'><svg fill="#fff" enable-background="new 0 0 64 64" height="64px" id="Layer_1" version="1.1" viewBox="0 0 64 64" width="64px" xml:space="preserve" xmlns="http://www.w3.org/2000/svg" xmlns:xlink="http://www.w3.org/1999/xlink"><path d="M39.612,39.43l0.112-0.021c1.209-0.22,2.46-0.448,3.652-0.911c0.855-0.332,1.76-0.596,2.637-0.851  c0.341-0.1,0.682-0.199,1.023-0.304c0.434-0.132,0.875-0.241,1.316-0.351c1.173-0.291,2.379-0.608,3.482-1.32  c0.082,0.012,0.159,0.017,0.229,0.017c0.088,0,0.164-0.006,0.225-0.012l0.094-0.006c0.414-0.003,0.748-0.342,0.744-0.756  c-0.004-0.412-0.338-0.744-0.75-0.744c-0.021,0-0.048,0.001-0.072,0.002c-0.029-0.366-0.057-0.736-0.084-1.11  c-0.097-1.313-0.197-2.67-0.385-4.023c-0.114-0.825-0.174-1.682-0.23-2.51c-0.043-0.615-0.086-1.23-0.149-1.844  c-0.136-1.313-0.272-2.837-0.186-4.32c0.015-0.228,0.015-0.458,0-0.684c-0.036-0.623-0.147-1.311-0.693-1.684  c-0.548-0.374-1.239-0.227-1.851-0.027c-0.037,0.013-0.136,0.02-0.215,0.025c-0.078,0.006-0.156,0.012-0.232,0.021  c-0.107,0.014-0.205,0.052-0.292,0.104c-0.013-0.223-0.035-0.444-0.063-0.667c-0.038-0.312-0.074-0.604-0.061-0.878  c0.041-0.803-0.58-1.106-0.858-1.241c-1.271-0.624-2.621-0.556-3.707-0.497c-2.585,0.13-5.042,0.7-7.3,1.697l-0.531,0.229  c-1.102,0.472-2.24,0.958-3.183,1.891c-0.055-0.029-0.113-0.063-0.14-0.079c-2.143-1.272-4.324-2.339-6.481-3.171  c-2.088-0.809-4.024-1.18-5.832-1.179c-1.119,0.009-2.07,0.466-2.834,0.834c-0.824,0.397-0.875,1.289-0.891,1.581  c-0.029,0.489-0.072,0.977-0.119,1.465c-0.036-0.005-0.07-0.021-0.106-0.021c-0.287,0.022-0.567-0.106-0.902-0.242  c-0.125-0.05-0.25-0.101-0.376-0.146c-0.583-0.213-0.98-0.072-1.21,0.083c-0.231,0.154-0.512,0.47-0.539,1.097  c-0.043,1.007-0.14,2.036-0.234,3.032c-0.094,0.992-0.19,2.019-0.237,3.043c-0.08,1.792-0.25,3.386-0.518,4.872  c-0.204,1.127-0.27,2.273-0.334,3.382c-0.021,0.38-0.043,0.76-0.071,1.138c-0.067,0.917,0.396,1.543,1.304,1.762  c1.681,0.408,3.366,0.952,4.997,1.478c0.743,0.24,1.485,0.479,2.23,0.708c1.728,0.53,3.492,1.024,5.199,1.502  c0.964,0.27,1.928,0.539,2.887,0.816l0.107,0.03c0.208,0.061,0.402,0.121,0.587,0.187c-0.287,0.083-0.575,0.163-0.863,0.241  c-0.471,0.129-0.941,0.257-1.405,0.406c-0.818,0.262-1.632,0.54-2.447,0.817c-1.563,0.534-3.18,1.086-4.788,1.506  c-2.249,0.587-4.393,1.454-6.471,2.32c0.003-0.222,0.037-0.459,0.074-0.716c0.044-0.303,0.085-0.605,0.091-0.908  c0-0.043,0.003-0.077,0.007-0.103c0.021,0.001,0.048,0.004,0.08,0.009c0.844,0.141,1.736-0.086,2.591-0.64  c1.943-1.266,3.082-2.666,3.583-4.409c0.115-0.397-0.115-0.813-0.513-0.928c-0.397-0.113-0.814,0.115-0.928,0.514  c-0.401,1.395-1.314,2.494-2.958,3.564c-0.546,0.353-1.062,0.498-1.536,0.418c-0.664-0.107-1.075,0.1-1.304,0.291  c-0.337,0.283-0.513,0.707-0.521,1.259c-0.004,0.239-0.041,0.479-0.075,0.718c-0.077,0.528-0.146,1.117,0.016,1.741  c-0.078,0.181-0.086,0.39-0.005,0.585c0.16,0.382,0.596,0.561,0.981,0.403l0.395-0.165c2.217-0.927,4.51-1.886,6.874-2.503  c1.661-0.434,3.304-0.995,4.893-1.537c0.806-0.274,1.611-0.55,2.42-0.81c0.443-0.142,0.892-0.264,1.341-0.386  c0.339-0.093,0.677-0.185,1.015-0.285l0.1-0.03c0.332-0.096,0.774-0.225,1.134-0.606c0.013,0,0.027,0,0.042,0  c0.808-0.024,1.565,0.264,2.358,0.551c0.72,0.262,1.464,0.492,2.209,0.722c0.52,0.16,1.04,0.32,1.553,0.493  c1.056,0.354,2.122,0.774,3.151,1.18l0.832,0.326c2.428,0.943,4.949,1.708,7.389,2.447l0.811,0.249  c0.677,0.214,1.375,0.434,2.154,0.504c0.066,0.006,0.141,0.011,0.219,0.011c0.266,0,0.585-0.053,0.853-0.285  c0.378-0.327,0.404-0.812,0.413-0.97c0.022-0.41,0.049-0.82,0.075-1.229l0.071-1.144c0.023-0.445-0.133-0.849-0.432-1.105  c-0.266-0.231-0.625-0.319-0.982-0.248c-1.115,0.229-1.815-0.33-2.867-1.258l-0.348-0.303c-0.424-0.363-0.765-0.833-1.125-1.33  c-0.234-0.325-0.471-0.649-0.76-0.997c-0.311-0.48-0.714-0.677-1.203-0.576c-0.405,0.081-0.669,0.477-0.588,0.883  c0.062,0.304,0.299,0.528,0.584,0.587c0.031,0.046,0.064,0.089,0.098,0.129c0.234,0.271,0.443,0.563,0.654,0.854  c0.396,0.546,0.805,1.11,1.363,1.589l0.332,0.29c0.934,0.822,2.079,1.838,3.759,1.662l-0.054,0.87  c-0.021,0.34-0.043,0.679-0.068,1.062c-0.565-0.068-1.116-0.242-1.697-0.426l-0.827-0.254c-2.411-0.731-4.905-1.487-7.28-2.41  l-0.825-0.323c-1.048-0.412-2.132-0.839-3.223-1.206c-0.524-0.177-1.058-0.341-1.589-0.505c-0.562-0.173-1.115-0.355-1.666-0.543  c0.095-0.022,0.19-0.042,0.281-0.07C36.363,40.148,38.027,39.719,39.612,39.43z M36.057,18.146l0.547-0.236  c2.09-0.923,4.367-1.452,6.771-1.572c1.006-0.05,2.047-0.107,2.984,0.353c0,0,0,0,0.001,0.001c-0.001,0.333,0.038,0.646,0.075,0.949  c0.026,0.211,0.054,0.422,0.062,0.635c0.062,1.511,0.106,3.021,0.151,4.533c0.052,1.701,0.103,3.403,0.176,5.103  c0.016,0.342,0.002,0.684-0.012,1.025c-0.024,0.634-0.049,1.29,0.08,1.977c0.098,0.508,0.096,1.026,0.06,1.512  c-0.252,0.011-0.526-0.031-0.813-0.076l-0.332-0.049c-2.193-0.285-4.366-0.11-6.463,0.515c-2.303,0.689-4.457,1.631-6.403,2.798  c-0.027,0.017-0.054,0.021-0.082,0.036c0.065-1.209,0.041-2.415,0.011-3.588c-0.027-1.096-0.056-2.229-0.004-3.331  c0.076-1.629,0.061-3.279,0.045-4.875c-0.008-0.856-0.017-1.712-0.011-2.568c0.002-0.369,0.043-0.737,0.083-1.106  c0.006-0.054,0.011-0.108,0.017-0.163c0.091-0.058,0.181-0.129,0.269-0.221C34.016,19.019,35.007,18.594,36.057,18.146z   M16.818,27.585c0.123-1.214,0.168-2.44,0.211-3.627c0.019-0.51,0.038-1.02,0.063-1.529c0.048-0.979,0.156-1.979,0.26-2.946  c0.097-0.897,0.197-1.826,0.252-2.753c0.013-0.237,0.051-0.314,0.047-0.317c0.799-0.385,1.468-0.68,2.192-0.685  c1.656,0.009,3.37,0.338,5.279,1.078c2.081,0.802,4.186,1.832,6.256,3.062c0.034,0.02,0.076,0.044,0.121,0.069  c-0.003,0.027-0.005,0.054-0.008,0.08c-0.045,0.421-0.09,0.841-0.092,1.26c-0.005,0.863,0.003,1.728,0.011,2.591  c0.015,1.576,0.031,3.205-0.043,4.791c-0.055,1.155-0.025,2.316,0.003,3.439c0.029,1.147,0.041,2.326-0.022,3.486  c-0.042-0.021-0.078-0.029-0.121-0.053l-0.472-0.254c-0.765-0.413-1.557-0.84-2.429-1.155c-1.586-0.57-3.227-0.961-4.77-1.312  c-1.559-0.355-3.034-0.533-4.458-0.533c-0.846,0-1.674,0.063-2.491,0.188c-0.076,0.012-0.133,0.018-0.176,0.02  c-0.005-0.049-0.009-0.118-0.006-0.212c0.034-1.25,0.168-2.525,0.298-3.759L16.818,27.585z M28.494,39.17  c-0.965-0.278-1.932-0.549-2.9-0.819c-1.698-0.476-3.453-0.966-5.163-1.491c-0.739-0.227-1.474-0.464-2.21-0.701  c-1.656-0.535-3.369-1.087-5.104-1.509c-0.099-0.023-0.146-0.048-0.156-0.048h0c-0.004-0.018-0.01-0.062-0.004-0.147  c0.028-0.386,0.05-0.772,0.072-1.159c0.062-1.064,0.125-2.165,0.312-3.201c0.281-1.554,0.458-3.213,0.541-5.072  c0.045-0.987,0.14-1.995,0.232-2.97c0.086-0.912,0.175-1.853,0.23-2.846c0.025,0.01,0.049,0.021,0.074,0.03  c0.406,0.164,0.868,0.35,1.417,0.346c-0.098,0.909-0.195,1.84-0.24,2.774c-0.025,0.515-0.044,1.03-0.063,1.546  c-0.043,1.163-0.087,2.365-0.205,3.532l-0.096,0.923c-0.132,1.262-0.269,2.566-0.305,3.874c-0.007,0.24-0.027,0.97,0.485,1.421  c0.446,0.393,1.025,0.356,1.424,0.295c2-0.304,4.089-0.199,6.388,0.326c1.499,0.341,3.089,0.719,4.594,1.26  c0.767,0.277,1.476,0.66,2.226,1.064l0.479,0.258c0.322,0.172,0.635,0.293,0.94,0.371c0.119,0.265,0.378,0.445,0.677,0.445  c0.026,0,0.053-0.001,0.08-0.004c0.265-0.028,0.471-0.197,0.582-0.42c0.31-0.068,0.614-0.172,0.912-0.35  c1.839-1.104,3.878-1.995,6.061-2.647c1.893-0.565,3.858-0.723,5.839-0.464l0.298,0.043c0.448,0.07,0.987,0.154,1.549,0.04  c0.057,0.014,0.114,0.021,0.173,0.021h0.445c0.414,0,0.75-0.336,0.75-0.75c0-0.278-0.151-0.521-0.376-0.65  c0.041-0.578,0.039-1.21-0.084-1.857c-0.099-0.52-0.078-1.063-0.056-1.64c0.015-0.383,0.028-0.765,0.013-1.147  c-0.074-1.693-0.125-3.389-0.176-5.083c-0.033-1.117-0.072-2.232-0.112-3.348c0.131,0.068,0.277,0.111,0.435,0.091l0.15-0.014  c0.164-0.012,0.367-0.027,0.575-0.097c0.269-0.088,0.426-0.117,0.512-0.126c0.021,0.081,0.05,0.232,0.065,0.502  c0.01,0.167,0.01,0.335,0,0.503c-0.094,1.598,0.049,3.194,0.19,4.566c0.063,0.596,0.104,1.193,0.146,1.792  c0.059,0.854,0.119,1.735,0.241,2.613c0.181,1.306,0.279,2.638,0.374,3.927c0.034,0.458,0.068,0.908,0.105,1.355  c-0.851,0.497-1.816,0.754-2.838,1.008c-0.467,0.116-0.936,0.232-1.394,0.372c-0.335,0.103-0.67,0.2-1.005,0.298  c-0.906,0.265-1.844,0.537-2.76,0.893c-1.059,0.411-2.238,0.627-3.378,0.834l-0.113,0.021c-1.647,0.301-3.367,0.744-5.575,1.437  c-0.133,0.042-0.271,0.07-0.408,0.1c-0.456,0.098-1.058,0.249-1.526,0.764c-0.404-0.086-0.823-0.15-1.269-0.158  c-0.02,0-0.05,0.003-0.074,0.003c-0.584-0.5-1.27-0.719-1.891-0.898L28.494,39.17z"/></svg>