<svg xmlns="http://www.w3.org/2000/svg" width="41.821" height="33.85" viewBox="0 0 41.821 33.85"><path d="M39.612,39.43l.112-.021a19.729,19.729,0,0,0,3.652-.911c.855-.332,1.76-.6,2.637-.851.341-.1.682-.2,1.023-.3.434-.132.875-.241,1.316-.351a11.121,11.121,0,0,0,3.482-1.32,1.586,1.586,0,0,0,.229.017c.088,0,.164-.006.225-.012l.094-.006a.75.75,0,0,0-.006-1.5l-.072,0q-.043-.549-.084-1.11c-.1-1.313-.2-2.67-.385-4.023-.114-.825-.174-1.682-.23-2.51-.043-.615-.086-1.23-.149-1.844a27.225,27.225,0,0,1-.186-4.32,5.2,5.2,0,0,0,0-.684A2.056,2.056,0,0,0,50.577,18a2.094,2.094,0,0,0-1.851-.027,1.2,1.2,0,0,1-.215.025c-.078.006-.156.012-.232.021a.761.761,0,0,0-.292.1c-.013-.223-.035-.444-.063-.667a5.355,5.355,0,0,1-.061-.878A1.27,1.27,0,0,0,47,15.335a7.249,7.249,0,0,0-3.707-.5,20.553,20.553,0,0,0-7.3,1.7l-.531.229a9.654,9.654,0,0,0-3.183,1.891c-.055-.029-.113-.063-.14-.079A43.293,43.293,0,0,0,25.663,15.4a16.072,16.072,0,0,0-5.832-1.179A6.6,6.6,0,0,0,17,15.06a1.746,1.746,0,0,0-.891,1.581c-.029.489-.072.977-.119,1.465a.8.8,0,0,0-.106-.021,2.091,2.091,0,0,1-.9-.242c-.125-.05-.25-.1-.376-.146a1.281,1.281,0,0,0-1.21.083,1.3,1.3,0,0,0-.539,1.1c-.043,1.007-.14,2.036-.234,3.032s-.19,2.019-.237,3.043a36.459,36.459,0,0,1-.518,4.872,28.012,28.012,0,0,0-.334,3.382c-.021.38-.043.76-.071,1.138a1.561,1.561,0,0,0,1.3,1.762c1.681.408,3.366.952,5,1.478.743.24,1.485.479,2.23.708,1.728.53,3.492,1.024,5.2,1.5.964.27,1.928.539,2.887.816l.107.03c.208.061.4.121.587.187q-.431.125-.863.241c-.471.129-.941.257-1.405.406-.818.262-1.632.54-2.447.817-1.563.534-3.18,1.086-4.788,1.506a49.23,49.23,0,0,0-6.471,2.32,5.711,5.711,0,0,1,.074-.716,7.348,7.348,0,0,0,.091-.908.682.682,0,0,1,.007-.1.779.779,0,0,1,.08.009,3.651,3.651,0,0,0,2.591-.64,7.808,7.808,0,0,0,3.583-4.409.75.75,0,1,0-1.441-.414A6.317,6.317,0,0,1,14.824,42.5a2.178,2.178,0,0,1-1.536.418,1.558,1.558,0,0,0-1.3.291,1.591,1.591,0,0,0-.521,1.259,5.828,5.828,0,0,1-.075.718,4.281,4.281,0,0,0,.016,1.741.748.748,0,0,0,.976.988l.4-.165a52.287,52.287,0,0,1,6.874-2.5c1.661-.434,3.3-.995,4.893-1.537.806-.274,1.611-.55,2.42-.81.443-.142.892-.264,1.341-.386.339-.093.677-.185,1.015-.285l.1-.03a2.339,2.339,0,0,0,1.134-.606h.042a6.438,6.438,0,0,1,2.358.551c.72.262,1.464.492,2.209.722.52.16,1.04.32,1.553.493,1.056.354,2.122.774,3.151,1.18l.832.326c2.428.943,4.949,1.708,7.389,2.447l.811.249a10.006,10.006,0,0,0,2.154.5c.066.006.141.011.219.011a1.265,1.265,0,0,0,.853-.285,1.35,1.35,0,0,0,.413-.97c.022-.41.049-.82.075-1.229l.071-1.144a1.34,1.34,0,0,0-.432-1.1,1.144,1.144,0,0,0-.982-.248c-1.115.229-1.815-.33-2.867-1.258l-.348-.3a7.491,7.491,0,0,1-1.125-1.33c-.234-.325-.471-.649-.76-1a1.1,1.1,0,0,0-1.2-.576.75.75,0,0,0,0,1.47,1.454,1.454,0,0,0,.1.129c.234.271.443.563.654.854a8.8,8.8,0,0,0,1.363,1.589l.332.29a4.853,4.853,0,0,0,3.759,1.662l-.054.87c-.021.34-.043.679-.068,1.062a9.412,9.412,0,0,1-1.7-.426l-.827-.254c-2.411-.731-4.9-1.487-7.28-2.41l-.825-.323c-1.048-.412-2.132-.839-3.223-1.206-.524-.177-1.058-.341-1.589-.505-.562-.173-1.115-.355-1.666-.543.1-.022.19-.042.281-.07A44.405,44.405,0,0,1,39.612,39.43ZM36.057,18.146l.547-.236a19.034,19.034,0,0,1,6.771-1.572,5.945,5.945,0,0,1,2.984.353h0a7.51,7.51,0,0,0,.075.949c.026.211.054.422.062.635.062,1.511.106,3.021.151,4.533.052,1.7.1,3.4.176,5.1.016.342,0,.684-.012,1.025a8.682,8.682,0,0,0,.08,1.977,5.762,5.762,0,0,1,.06,1.512,4.237,4.237,0,0,1-.813-.076l-.332-.049a15.489,15.489,0,0,0-6.463.515,28.118,28.118,0,0,0-6.4,2.8c-.027.017-.054.021-.082.036.065-1.209.041-2.415.011-3.588-.027-1.1-.056-2.229,0-3.331.076-1.629.061-3.279.045-4.875-.008-.856-.017-1.712-.011-2.568a10.827,10.827,0,0,1,.083-1.106c.006-.054.011-.108.017-.163a1.437,1.437,0,0,0,.269-.221A8.049,8.049,0,0,1,36.057,18.146ZM16.818,27.585c.123-1.214.168-2.44.211-3.627.019-.51.038-1.02.063-1.529.048-.979.156-1.979.26-2.946.1-.9.2-1.826.252-2.753a1.376,1.376,0,0,1,.047-.317,5.211,5.211,0,0,1,2.192-.685,14.62,14.62,0,0,1,5.279,1.078,41.6,41.6,0,0,1,6.256,3.062l.121.069c0,.027,0,.054-.008.08a12.455,12.455,0,0,0-.092,1.26c0,.863,0,1.728.011,2.591.015,1.576.031,3.2-.043,4.791-.055,1.155-.025,2.316,0,3.439.029,1.147.041,2.326-.022,3.486-.042-.021-.078-.029-.121-.053l-.472-.254a17.956,17.956,0,0,0-2.429-1.155,40.869,40.869,0,0,0-4.77-1.312,20.016,20.016,0,0,0-4.458-.533,16.424,16.424,0,0,0-2.491.188,1.65,1.65,0,0,1-.176.02,1.579,1.579,0,0,1-.006-.212c.034-1.25.168-2.525.3-3.759ZM28.494,39.17q-1.448-.417-2.9-.819c-1.7-.476-3.453-.966-5.163-1.491-.739-.227-1.474-.464-2.21-.7-1.656-.535-3.369-1.087-5.1-1.509-.1-.023-.146-.048-.156-.048h0a.542.542,0,0,1,0-.147c.028-.386.05-.772.072-1.159a27.145,27.145,0,0,1,.312-3.2,37.811,37.811,0,0,0,.541-5.072c.045-.987.14-2,.232-2.97.086-.912.175-1.853.23-2.846.025.01.049.021.074.03a3.626,3.626,0,0,0,1.417.346c-.1.909-.195,1.84-.24,2.774-.025.515-.044,1.03-.063,1.546-.043,1.163-.087,2.365-.2,3.532l-.1.923c-.132,1.262-.269,2.566-.305,3.874a1.8,1.8,0,0,0,.485,1.421,1.7,1.7,0,0,0,1.424.295,16.907,16.907,0,0,1,6.388.326,39.576,39.576,0,0,1,4.594,1.26A16.664,16.664,0,0,1,30.043,36.6l.479.258a4.2,4.2,0,0,0,.94.371.743.743,0,0,0,.677.445.726.726,0,0,0,.08,0,.738.738,0,0,0,.582-.42,2.992,2.992,0,0,0,.912-.35,26.517,26.517,0,0,1,6.061-2.647,13.961,13.961,0,0,1,5.839-.464l.3.043a4.306,4.306,0,0,0,1.549.04.719.719,0,0,0,.173.021h.445a.75.75,0,0,0,.374-1.4,7.19,7.19,0,0,0-.084-1.857,7.324,7.324,0,0,1-.056-1.64c.015-.383.028-.765.013-1.147-.074-1.693-.125-3.389-.176-5.083q-.05-1.676-.112-3.348a.735.735,0,0,0,.435.091l.15-.014a2.272,2.272,0,0,0,.575-.1,2.6,2.6,0,0,1,.512-.126,2.617,2.617,0,0,1,.065.5,4.221,4.221,0,0,1,0,.5,28.518,28.518,0,0,0,.19,4.566c.063.6.1,1.193.146,1.792.059.854.119,1.735.241,2.613.181,1.306.279,2.638.374,3.927.034.458.068.908.1,1.355a10.613,10.613,0,0,1-2.838,1.008c-.467.116-.936.232-1.394.372-.335.1-.67.2-1.005.3-.906.265-1.844.537-2.76.893a18.6,18.6,0,0,1-3.378.834l-.113.021a45.842,45.842,0,0,0-5.575,1.437c-.133.042-.271.07-.408.1a2.692,2.692,0,0,0-1.526.764,6.613,6.613,0,0,0-1.269-.158l-.074,0a4.827,4.827,0,0,0-1.891-.9Z" transform="translate(-11.305 -14.226)" fill="#fff"/></svg>